<svg width="29" height="32" viewBox="0 0 29 32" fill="none" xmlns="http://www.w3.org/2000/svg">
<path d="M22.404 2.62183H5.8958C4.9576 2.62183 4.05783 3.03617 3.39443 3.7737C2.73102 4.51123 2.35832 5.51153 2.35832 6.55455V19.6636C2.35832 20.7067 2.73102 21.707 3.39443 22.4445C4.05783 23.182 4.9576 23.5964 5.8958 23.5964H19.5623L23.9252 28.4598C24.0353 28.5813 24.166 28.6775 24.3097 28.7427C24.4533 28.8079 24.6072 28.841 24.7624 28.84C24.917 28.8444 25.0705 28.8085 25.2104 28.7351C25.4258 28.6368 25.6101 28.4698 25.7402 28.2552C25.8703 28.0405 25.9404 27.7879 25.9415 27.5291V6.55455C25.9415 5.51153 25.5688 4.51123 24.9054 3.7737C24.242 3.03617 23.3422 2.62183 22.404 2.62183ZM23.5832 24.3698L20.8829 21.3547C20.7727 21.2332 20.6421 21.1371 20.4984 21.0719C20.3547 21.0066 20.2009 20.9736 20.0457 20.9746H5.8958C5.58307 20.9746 5.28315 20.8364 5.06201 20.5906C4.84087 20.3448 4.71664 20.0113 4.71664 19.6636V6.55455C4.71664 6.20688 4.84087 5.87344 5.06201 5.6276C5.28315 5.38176 5.58307 5.24364 5.8958 5.24364H22.404C22.7168 5.24364 23.0167 5.38176 23.2378 5.6276C23.459 5.87344 23.5832 6.20688 23.5832 6.55455V24.3698Z" fill="white"/>
<rect x="4" y="4" width="21" height="18" fill="white"/>
<rect x="20" y="19" width="5" height="5" fill="white"/>
</svg>
