<svg width="13" height="13" viewBox="0 0 13 13" fill="none" xmlns="http://www.w3.org/2000/svg">
<path d="M0.247394 2.23046C0.410724 1.79209 0.65012 1.39378 0.951913 1.05827C1.2537 0.722759 1.61198 0.456615 2.00629 0.275036C2.4006 0.0934575 2.82322 0 3.25002 0C3.67681 0 4.09943 0.0934575 4.49374 0.275036C4.88805 0.456615 5.24633 0.722759 5.54812 1.05827L6.50001 2.11651L7.45189 1.05827C8.06139 0.380678 8.88804 9.18149e-06 9.74999 9.18863e-06C10.6119 9.19577e-06 11.4386 0.380678 12.0481 1.05827C12.6576 1.73587 13 2.65488 13 3.61315C13 4.57141 12.6576 5.49043 12.0481 6.16802L6.50001 12.336L0.951913 6.16802C0.65012 5.83251 0.410724 5.4342 0.247394 4.99584C0.0840646 4.55747 0 4.08763 0 3.61315C0 3.13866 0.0840646 2.66882 0.247394 2.23046Z" fill="#FFD600"/>
</svg>
