<svg width="53" height="34" viewBox="0 0 53 34" fill="none" xmlns="http://www.w3.org/2000/svg">
<path d="M45 27.1944C42.6852 28.6019 40.1944 29.7037 37.5278 30.5C34.8426 31.2778 32.0556 31.6667 29.1667 31.6667C26.2778 31.6667 23.5 31.2778 20.8333 30.5C18.1481 29.7037 15.6481 28.6019 13.3333 27.1944L13.3333 22.3333C15.5741 23.8704 18.0278 25.0648 20.6944 25.9167C23.3611 26.75 26.1852 27.1667 29.1667 27.1667C32.1296 27.1667 34.9537 26.75 37.6389 25.9167C40.3056 25.0648 42.7593 23.8704 45 22.3333V27.1944Z" fill="#FFD600"/>
<rect x="9" y="7" width="14" height="4" fill="#FFD600"/>
<rect x="31" y="9.95551" width="14.0792" height="4" transform="rotate(-45 31 9.95551)" fill="#FFD600"/>
<rect x="40.8284" width="14.0792" height="4" transform="rotate(45 40.8284 0)" fill="#FFD600"/>
</svg>
