<svg width="29" height="33" viewBox="0 0 29 33" fill="none" xmlns="http://www.w3.org/2000/svg">
<path d="M22.5623 3.41324H6.05408C5.11588 3.41324 4.21611 3.82758 3.55271 4.56511C2.8893 5.30264 2.5166 6.30294 2.5166 7.34597V20.4551C2.5166 21.4981 2.8893 22.4984 3.55271 23.2359C4.21611 23.9734 5.11588 24.3878 6.05408 24.3878H19.7205L24.0834 29.2513C24.1936 29.3728 24.3243 29.4689 24.4679 29.5341C24.6116 29.5994 24.7655 29.6324 24.9206 29.6314C25.0753 29.6359 25.2288 29.5999 25.3687 29.5266C25.5841 29.4282 25.7684 29.2612 25.8985 29.0466C26.0286 28.832 26.0986 28.5793 26.0998 28.3205V7.34597C26.0998 6.30294 25.7271 5.30264 25.0637 4.56511C24.4003 3.82758 23.5005 3.41324 22.5623 3.41324ZM23.7415 25.1612L21.0412 22.1461C20.931 22.0246 20.8004 21.9285 20.6567 21.8633C20.513 21.798 20.3592 21.765 20.204 21.766H6.05408C5.74135 21.766 5.44142 21.6279 5.22029 21.382C4.99915 21.1362 4.87492 20.8027 4.87492 20.4551V7.34597C4.87492 6.99829 4.99915 6.66486 5.22029 6.41901C5.44142 6.17317 5.74135 6.03506 6.05408 6.03506H22.5623C22.875 6.03506 23.175 6.17317 23.3961 6.41901C23.6172 6.66486 23.7415 6.99829 23.7415 7.34597V25.1612Z" fill="white"/>
</svg>
