<svg width="15" height="14" viewBox="0 0 15 14" fill="none" xmlns="http://www.w3.org/2000/svg">
<path d="M1.24739 3.23046C1.41072 2.79209 1.65012 2.39378 1.95191 2.05827C2.2537 1.72276 2.61198 1.45662 3.00629 1.27504C3.4006 1.09346 3.82322 1 4.25002 1C4.67681 1 5.09943 1.09346 5.49374 1.27504C5.88805 1.45662 6.24633 1.72276 6.54812 2.05827L7.50001 3.11651L8.45189 2.05827C9.06139 1.38068 9.88804 1.00001 10.75 1.00001C11.6119 1.00001 12.4386 1.38068 13.0481 2.05827C13.6576 2.73587 14 3.65488 14 4.61315C14 5.57141 13.6576 6.49043 13.0481 7.16802L7.50001 13.336L1.95191 7.16802C1.65012 6.83251 1.41072 6.4342 1.24739 5.99584C1.08406 5.55747 1 5.08763 1 4.61315C1 4.13866 1.08406 3.66882 1.24739 3.23046Z" stroke="white" stroke-linecap="round" stroke-linejoin="round"/>
</svg>
