<svg width="193" height="68" viewBox="0 0 193 68" fill="none" xmlns="http://www.w3.org/2000/svg">
<path d="M19.8593 21.2764C25.7728 27.1844 29.3699 35.3503 29.7319 43.6999C30.0938 52.0496 27.2178 60.4995 21.8388 66.8947C28.1004 65.4302 33.4654 60.4828 35.5034 54.3827C37.5414 48.2827 36.695 41.4142 33.8385 35.651C30.982 29.8878 25.9872 24.481 19.8593 21.2764Z" fill="white"/>
<mask id="mask0_3_313" style="mask-type:luminance" maskUnits="userSpaceOnUse" x="37" y="32" width="14" height="36">
<path d="M37.405 32.775H50.3012V68H37.405V32.775Z" fill="white"/>
</mask>
<g mask="url(#mask0_3_313)">
<path d="M39.0338 68.0947C47.0493 60.274 43.5664 40.423 37.4134 32.8335C57.4592 47.002 50.9416 69.058 39.0338 68.0947Z" fill="white"/>
</g>
<mask id="mask1_3_313" style="mask-type:luminance" maskUnits="userSpaceOnUse" x="2" y="0" width="78" height="59">
<path d="M2.78973 0H79.8605V58.1775H2.78973V0Z" fill="white"/>
</mask>
<g mask="url(#mask1_3_313)">
<path d="M28.7772 7.06322C27.4881 6.70963 27.4074 5.87717 24.7485 6.00246C27.7805 4.12038 32.0681 4.27351 35.8378 5.88553C33.2318 5.72683 31.3693 7.77875 28.7772 7.06322ZM79.8774 49.9446C80.1224 33.3595 70.9821 19.5473 57.9606 13.102C66.4272 14.9229 76.1328 20.7807 79.6825 23.331C68.1116 8.74484 49.3326 -0.63773 30.7261 0.0332498C26.1156 0.200298 18.6179 1.4114 17.2648 4.96119L18.3255 6.83214C16.8778 6.62889 9.87285 6.51196 6.81029 7.93744C0.640622 10.8107 2.36401 18.0049 6.67944 20.8253C3.87023 9.47151 54.8173 22.3482 61.2793 58.1217C64.4533 52.2026 63.5039 35.932 60.6613 29.0608C75.1945 36.0907 79.8774 49.9446 79.8774 49.9446Z" fill="white"/>
</g>
<mask id="mask2_3_313" style="mask-type:luminance" maskUnits="userSpaceOnUse" x="0" y="24" width="21" height="21">
<path d="M0 24.0439H20.0236V44.0647H0V24.0439Z" fill="white"/>
</mask>
<g mask="url(#mask2_3_313)">
<path d="M20.0403 34.061C12.5259 35.4447 11.4039 36.5667 10.0201 44.0811C8.63642 36.5667 7.51441 35.4447 0 34.061C7.51441 32.6772 8.63642 31.558 10.0201 24.0408C11.4039 31.558 12.5259 32.6772 20.0403 34.061Z" fill="#FFDF00"/>
</g>
<mask id="mask3_3_313" style="mask-type:luminance" maskUnits="userSpaceOnUse" x="2" y="26" width="16" height="16">
<path d="M2.78973 26.8336H17.1476V41.1886H2.78973V26.8336Z" fill="white"/>
</mask>
<g mask="url(#mask3_3_313)">
<mask id="mask4_3_313" style="mask-type:luminance" maskUnits="userSpaceOnUse" x="2" y="26" width="16" height="16">
<path d="M10.0202 26.8336C6.0277 26.8336 2.78973 30.0688 2.78973 34.064C2.78973 38.0565 6.0277 41.2944 10.0202 41.2944C14.0154 41.2944 17.2534 38.0565 17.2534 34.064C17.2534 30.0688 14.0154 26.8336 10.0202 26.8336Z" fill="white"/>
</mask>
<g mask="url(#mask4_3_313)">
<path d="M10.0202 26.8336C6.0277 26.8336 2.78973 30.0688 2.78973 34.064C2.78973 38.0565 6.0277 41.2945 10.0202 41.2945C14.0154 41.2945 17.2534 38.0565 17.2534 34.064C17.2534 30.0688 14.0154 26.8336 10.0202 26.8336Z" stroke="white" stroke-width="2.13823"/>
</g>
</g>
<path d="M109.818 17.3505C111.784 17.3505 113.24 17.0554 114.184 16.4596C115.133 15.8666 115.61 14.7835 115.61 13.2077C115.61 11.6709 115.145 10.599 114.217 9.98925C113.288 9.3823 111.823 9.07605 109.818 9.07605H104.139V17.3505H109.818ZM110.932 4.10913C114.243 4.10913 116.835 4.91932 118.705 6.53691C120.576 8.14893 121.512 10.3735 121.512 13.2077C121.512 15.925 120.593 18.1245 118.761 19.8006C116.935 21.4711 114.323 22.3063 110.932 22.3063H104.139V32.8304C104.139 33.3427 104.234 33.7074 104.428 33.9218C104.629 34.1389 105.044 34.2865 105.676 34.3672V35.1913H96.6996V34.3672C97.3288 34.2865 97.7409 34.1389 97.9358 33.9218C98.1362 33.7074 98.2364 33.3427 98.2364 32.8304V6.47009C98.2364 5.9578 98.1362 5.59586 97.9358 5.3787C97.7409 5.16432 97.3288 5.01676 96.6996 4.93324V4.10913H110.932Z" fill="white"/>
<path d="M137.947 4.10913V4.93324C137.39 5.01676 137.011 5.16432 136.811 5.3787C136.616 5.59586 136.521 5.9578 136.521 6.47009V24.0213C136.521 25.9897 137.081 27.5739 138.203 28.7767C139.33 29.9794 140.979 30.5808 143.148 30.5808C145.308 30.5808 146.948 29.9906 148.07 28.8101C149.197 27.6296 149.763 26.0343 149.763 24.0213V6.47009C149.763 5.9578 149.662 5.59586 149.462 5.3787C149.267 5.16432 148.897 5.01676 148.348 4.93324V4.10913H156.734V4.93324C156.102 5.01676 155.687 5.16432 155.487 5.3787C155.292 5.59586 155.197 5.9578 155.197 6.47009V23.7875C155.197 27.6129 154.189 30.5307 152.179 32.5408C150.175 34.5454 147.082 35.5477 142.903 35.5477C134.712 35.5477 130.619 31.6276 130.619 23.7875V6.47009C130.619 5.9578 130.508 5.59586 130.285 5.3787C130.068 5.16432 129.628 5.01676 128.96 4.93324V4.10913H137.947Z" fill="white"/>
<path d="M178.249 17.3505C180.215 17.3505 181.671 17.0554 182.614 16.4596C183.564 15.8666 184.04 14.7835 184.04 13.2077C184.04 11.6709 183.575 10.599 182.648 9.98925C181.718 9.3823 180.254 9.07605 178.249 9.07605H172.569V17.3505H178.249ZM179.363 4.10913C182.673 4.10913 185.265 4.91932 187.136 6.53691C189.007 8.14893 189.942 10.3735 189.942 13.2077C189.942 15.925 189.024 18.1245 187.192 19.8006C185.365 21.4711 182.754 22.3063 179.363 22.3063H172.569V32.8304C172.569 33.3427 172.664 33.7074 172.859 33.9218C173.059 34.1389 173.474 34.2865 174.106 34.3672V35.1913H165.13V34.3672C165.759 34.2865 166.171 34.1389 166.366 33.9218C166.567 33.7074 166.667 33.3427 166.667 32.8304V6.47009C166.667 5.9578 166.567 5.59586 166.366 5.3787C166.171 5.16432 165.759 5.01676 165.13 4.93324V4.10913H179.363Z" fill="white"/>
<path d="M99.0271 51.3081H102.88L100.965 45.2164H100.909L99.0271 51.3081ZM103.515 41.9645V42.3765C103.284 42.3932 103.125 42.4434 103.036 42.5324C102.947 42.6215 102.903 42.7329 102.903 42.8665C102.903 42.9417 102.917 43.028 102.947 43.1227C102.975 43.2201 103.05 43.4429 103.17 43.7909L107.368 56.03C107.463 56.3195 107.549 56.5144 107.625 56.6091C107.705 56.7065 107.836 56.7761 108.014 56.8207V57.2216H104.072V56.8207C104.412 56.7622 104.584 56.6536 104.584 56.4977C104.584 56.3808 104.534 56.1859 104.439 55.9186L103.549 53.3349H98.3255L97.5125 55.7404C97.4374 55.9186 97.4012 56.094 97.4012 56.2639C97.4012 56.3975 97.4401 56.52 97.5237 56.6314C97.6128 56.7372 97.7826 56.7984 98.0359 56.8207V57.2216H94.205V56.8207C94.3971 56.7984 94.5418 56.687 94.6393 56.4866C94.7339 56.2806 94.8425 56.0133 94.9622 55.6848L99.0271 43.7909C99.0995 43.5849 99.1663 43.3844 99.2276 43.1895C99.286 42.9974 99.3166 42.8415 99.3166 42.7218C99.3166 42.5519 99.0995 42.4378 98.6707 42.3765V41.9645H103.515Z" fill="white"/>
<path d="M115.752 44.4591V44.8711C115.351 44.8711 115.151 45.1217 115.151 45.6173V56.0857C115.151 56.5757 115.351 56.8207 115.752 56.8207V57.2216H111.988V56.8207C112.389 56.8207 112.59 56.5701 112.59 56.0634V45.6173C112.59 45.1217 112.389 44.8711 111.988 44.8711V44.4591H115.752Z" fill="white"/>
<path d="M126.775 50.2612C127.821 50.2612 128.57 50.1248 129.024 49.8492C129.475 49.568 129.703 49.0585 129.703 48.3235C129.703 47.6413 129.497 47.1485 129.091 46.8423C128.69 46.5305 127.936 46.3746 126.83 46.3746H124.191V50.2612H126.775ZM127.766 44.4591C129.174 44.4591 130.255 44.8015 131.006 45.4836C131.764 46.1602 132.142 47.1263 132.142 48.3791C132.142 48.8246 132.053 49.2534 131.875 49.6598C131.702 50.0608 131.474 50.4227 131.185 50.7401C130.895 51.0603 130.555 51.3276 130.171 51.5419C129.784 51.7507 129.375 51.8732 128.946 51.9094L131.53 56.2304C131.664 56.4476 131.775 56.5868 131.864 56.6536C131.953 56.7204 132.045 56.7761 132.142 56.8207V57.2216H128.657V56.8207C128.871 56.8207 128.98 56.7427 128.98 56.5868C128.98 56.5061 128.963 56.417 128.935 56.3195C128.904 56.2249 128.84 56.0968 128.746 55.9409L126.485 52.1767H124.191V56.0634C124.191 56.2722 124.235 56.4504 124.324 56.5979C124.414 56.7483 124.542 56.8207 124.714 56.8207V57.2216H121.117V56.8207C121.295 56.8207 121.423 56.7483 121.507 56.5979C121.596 56.4504 121.641 56.2722 121.641 56.0634V45.6173C121.641 45.1217 121.465 44.8711 121.117 44.8711V44.4591H127.766Z" fill="white"/>
<path d="M141.852 50.2055C142.876 50.2055 143.603 50.0663 144.034 49.7823C144.471 49.5012 144.691 49.0028 144.691 48.29C144.691 47.555 144.463 47.0539 144.012 46.7866C143.558 46.5138 142.82 46.3746 141.796 46.3746H140.003V50.2055H141.852ZM142.464 44.4591C143.873 44.4591 145.003 44.757 145.85 45.35C146.702 45.9374 147.13 46.8868 147.13 48.201C147.13 49.5151 146.702 50.5007 145.85 51.1521C145.003 51.7981 143.873 52.121 142.464 52.121H140.003V56.0634C140.003 56.5701 140.175 56.8207 140.526 56.8207V57.2216H136.985V56.8207C137.288 56.8207 137.441 56.5701 137.441 56.0634V45.6173C137.441 45.1217 137.269 44.8711 136.929 44.8711V44.4591H142.464Z" fill="white"/>
<path d="M156.964 57.3998C156.073 57.3998 155.249 57.2383 154.492 56.9209C153.74 56.6035 153.094 56.1525 152.554 55.5734C152.011 54.9887 151.59 54.2927 151.295 53.4908C150.997 52.689 150.85 51.8064 150.85 50.8403C150.85 49.8993 150.997 49.0251 151.295 48.2232C151.59 47.4158 152.011 46.7198 152.554 46.1407C153.094 45.5616 153.737 45.1105 154.48 44.782C155.229 44.4563 156.056 44.292 156.964 44.292C157.855 44.292 158.673 44.4535 159.425 44.7709C160.182 45.0911 160.831 45.5393 161.374 46.1184C161.914 46.6975 162.335 47.388 162.632 48.1898C162.928 48.9916 163.078 49.877 163.078 50.8403C163.078 51.8064 162.928 52.689 162.632 53.4908C162.335 54.2927 161.914 54.9887 161.374 55.5734C160.831 56.1525 160.182 56.6035 159.425 56.9209C158.673 57.2383 157.855 57.3998 156.964 57.3998ZM153.278 50.8403C153.278 51.5169 153.37 52.1322 153.556 52.689C153.74 53.2403 153.993 53.7108 154.313 54.1033C154.631 54.4987 155.018 54.8049 155.472 55.0277C155.923 55.2504 156.421 55.3618 156.964 55.3618C157.504 55.3618 158.002 55.2504 158.456 55.0277C158.907 54.8049 159.294 54.4987 159.614 54.1033C159.932 53.7108 160.185 53.2403 160.372 52.689C160.555 52.1322 160.65 51.5169 160.65 50.8403C160.65 50.1888 160.555 49.5819 160.372 49.0251C160.185 48.4627 159.932 47.9838 159.614 47.5884C159.294 47.1875 158.907 46.8757 158.456 46.653C158.002 46.4302 157.504 46.3189 156.964 46.3189C155.878 46.3189 154.993 46.7365 154.302 47.5662C153.617 48.3986 153.278 49.49 153.278 50.8403Z" fill="white"/>
<path d="M173.088 50.2612C174.135 50.2612 174.884 50.1248 175.337 49.8492C175.788 49.568 176.017 49.0585 176.017 48.3235C176.017 47.6413 175.811 47.1485 175.404 46.8423C175.003 46.5305 174.249 46.3746 173.143 46.3746H170.504V50.2612H173.088ZM174.079 44.4591C175.488 44.4591 176.568 44.8015 177.32 45.4836C178.077 46.1602 178.456 47.1263 178.456 48.3791C178.456 48.8246 178.366 49.2534 178.188 49.6598C178.016 50.0608 177.787 50.4227 177.498 50.7401C177.208 51.0603 176.869 51.3276 176.484 51.5419C176.097 51.7507 175.688 51.8732 175.259 51.9094L177.843 56.2304C177.977 56.4476 178.088 56.5868 178.177 56.6536C178.266 56.7204 178.358 56.7761 178.456 56.8207V57.2216H174.97V56.8207C175.184 56.8207 175.293 56.7427 175.293 56.5868C175.293 56.5061 175.276 56.417 175.248 56.3195C175.218 56.2249 175.154 56.0968 175.059 55.9409L172.798 52.1767H170.504V56.0634C170.504 56.2722 170.549 56.4504 170.638 56.5979C170.727 56.7483 170.855 56.8207 171.027 56.8207V57.2216H167.43V56.8207C167.609 56.8207 167.737 56.7483 167.82 56.5979C167.909 56.4504 167.954 56.2722 167.954 56.0634V45.6173C167.954 45.1217 167.778 44.8711 167.43 44.8711V44.4591H174.079Z" fill="white"/>
<path d="M182.307 43.9356H182.719C182.83 44.2864 183.078 44.4591 183.465 44.4591H191.127C191.511 44.4591 191.765 44.2864 191.884 43.9356H192.285V47.0762H191.884C191.787 46.692 191.522 46.4971 191.094 46.4971H188.577V56.0634C188.577 56.2945 188.616 56.481 188.699 56.6202C188.788 56.7539 188.88 56.8207 188.978 56.8207V57.2216H185.559V56.8207C185.871 56.8207 186.026 56.5701 186.026 56.0634V46.4971H183.465C183.078 46.4971 182.83 46.6697 182.719 47.0093H182.307V43.9356Z" fill="white"/>
</svg>
