<svg width="390" height="501" viewBox="0 0 390 501" fill="none" xmlns="http://www.w3.org/2000/svg">
<mask id="mask0_4_370" style="mask-type:luminance" maskUnits="userSpaceOnUse" x="0" y="0" width="390" height="501">
<path d="M0 0.837036H390V500.235H0V0.837036Z" fill="white"/>
</mask>
<g mask="url(#mask0_4_370)">
<path d="M390.277 1.33557V245.88C390.277 361.205 302.792 452.685 195.135 499.897C87.7931 452.778 0 361.452 0 245.88V1.33557H390.277Z" fill="#C1272D"/>
</g>
<path d="M107.681 167.633C132.77 192.686 148.029 227.34 149.561 262.764C151.1 298.187 138.9 334.03 116.07 361.162C142.643 354.952 165.399 333.962 174.047 308.079C182.702 282.202 179.101 253.057 166.987 228.608C154.867 204.159 133.675 181.218 107.681 167.633Z" fill="white"/>
<mask id="mask1_4_370" style="mask-type:luminance" maskUnits="userSpaceOnUse" x="182" y="216" width="55" height="150">
<path d="M182.117 216.599H236.831V365.859H182.117V216.599Z" fill="white"/>
</mask>
<g mask="url(#mask1_4_370)">
<path d="M189.023 366.259C223.025 333.07 208.252 248.859 182.154 216.654C267.202 276.767 239.546 370.34 189.023 366.259Z" fill="white"/>
</g>
<mask id="mask2_4_370" style="mask-type:luminance" maskUnits="userSpaceOnUse" x="35" y="77" width="328" height="248">
<path d="M35.2637 77.3658H362.24V324.187H35.2637V77.3658Z" fill="white"/>
</mask>
<g mask="url(#mask2_4_370)">
<path d="M145.511 107.336C140.039 105.828 139.707 102.301 128.412 102.824C141.283 94.8408 159.472 95.4933 175.463 102.338C164.414 101.661 156.505 110.364 145.511 107.336ZM362.307 289.256C363.341 218.889 324.569 160.29 269.325 132.942C305.241 140.673 346.42 165.522 361.476 176.349C312.388 114.464 232.714 74.6576 153.778 77.5075C134.216 78.2153 102.412 83.355 96.6629 98.4109L101.169 106.351C95.0256 105.489 65.3139 104.985 52.3078 111.042C26.1354 123.229 33.4541 153.747 51.7661 165.713C39.8494 117.548 255.981 172.17 283.396 323.941C296.864 298.84 292.839 229.802 280.78 200.65C342.438 230.479 362.307 289.256 362.307 289.256Z" fill="white"/>
</g>
<mask id="mask3_4_370" style="mask-type:luminance" maskUnits="userSpaceOnUse" x="27" y="194" width="86" height="86">
<path d="M27.9327 194.723H112.882V279.672H27.9327V194.723Z" fill="white"/>
</mask>
<g mask="url(#mask3_4_370)">
<path d="M112.95 237.232C81.0715 243.104 76.3134 247.862 70.4413 279.746C64.5753 247.862 59.8172 243.104 27.9327 237.232C59.8172 231.366 64.5753 226.607 70.4413 194.723C76.3134 226.607 81.0715 231.366 112.95 237.232Z" fill="#FFDF00"/>
</g>
<mask id="mask4_4_370" style="mask-type:luminance" maskUnits="userSpaceOnUse" x="39" y="206" width="62" height="62">
<path d="M39.7694 206.56H100.676V267.466H39.7694V206.56Z" fill="white"/>
</mask>
<g mask="url(#mask4_4_370)">
<mask id="mask5_4_370" style="mask-type:luminance" maskUnits="userSpaceOnUse" x="39" y="206" width="63" height="62">
<path d="M70.4474 206.56C53.508 206.56 39.7694 220.298 39.7694 237.244C39.7694 254.183 53.508 267.922 70.4474 267.922C87.393 267.922 101.132 254.183 101.132 237.244C101.132 220.298 87.393 206.56 70.4474 206.56Z" fill="white"/>
</mask>
<g mask="url(#mask5_4_370)">
<path d="M70.4474 206.56C53.508 206.56 39.7694 220.298 39.7694 237.244C39.7694 254.183 53.508 267.922 70.4474 267.922C87.393 267.922 101.132 254.183 101.132 237.244C101.132 220.298 87.393 206.56 70.4474 206.56Z" stroke="white" stroke-width="4.72727"/>
</g>
</g>
</svg>
